PathFileType	4	(X/Y/Z)	E:\Qualisys_Data\Carbon_Farble_Plate\Data\Amateur_Runner\S14\T2\S14T2V24_c3d.trc
DataRate	CameraRate	NumFrames	NumMarkers	Units	OrigDataRate	OrigDataStartFrame	OrigNumFrames
200.000000	200.000000	5	39	mm	200.000000	196	315
Frame#	Time	LSHO			RSHO			LICST			RICST			LASIS			LHEEL			RASIS			LTROC			RTROC			SACR			LTH1			LSK4			LTH2			LTH3			RHM5			LSK2			LTH4			RTH1			LTOE			RTH2			RTH3			RTH4			LLEP			RLEP			LSK1			LSK3			RSK1			LHM5			RSK2			LFT1			RSK3			RSK4			LLME			RLME			RTOE			RHEEL			RFT1			RFT2			LFT2			
		X1	Y1	Z1	X2	Y2	Z2	X3	Y3	Z3	X4	Y4	Z4	X5	Y5	Z5	X6	Y6	Z6	X7	Y7	Z7	X8	Y8	Z8	X9	Y9	Z9	X10	Y10	Z10	X11	Y11	Z11	X12	Y12	Z12	X13	Y13	Z13	X14	Y14	Z14	X15	Y15	Z15	X16	Y16	Z16	X17	Y17	Z17	X18	Y18	Z18	X19	Y19	Z19	X20	Y20	Z20	X21	Y21	Z21	X22	Y22	Z22	X23	Y23	Z23	X24	Y24	Z24	X25	Y25	Z25	X26	Y26	Z26	X27	Y27	Z27	X28	Y28	Z28	X29	Y29	Z29	X30	Y30	Z30	X31	Y31	Z31	X32	Y32	Z32	X33	Y33	Z33	X34	Y34	Z34	X35	Y35	Z35	X36	Y36	Z36	X37	Y37	Z37	X38	Y38	Z38	X39	Y39	Z39	

197	0.98	994.76318359375	1410.310302734375	-485.5724182128906	1056.388427734375	1392.319213867188	-190.9453277587891	973.166259765625	954.7334594726562	-478.6391906738281	999.7798461914062	958.255126953125	-200.4342498779297	1020.2275390625	906.0978393554688	-455.2383422851562	779.0360717773438	381.1082153320312	-367.2002868652344	1025.573608398438	915.9484252929688	-219.5065155029297	898.79443359375	831.8761596679688	-499.8407897949219	876.6123657226562	845.2449951171875	-170.6728363037109	847.4736938476562	957.1181030273438	-343.8089599609375	1089.653076171875	666.6116333007812	-505.7404479980469	960.9583740234376	465.9782409667969	-454.8931579589844	1030.4345703125	621.6510620117188	-478.468505859375	1156.0390625	593.3007202148438	-488.71923828125	694.4248657226562	60.44433975219727	-196.7522277832031	1045.56396484375	513.9573974609375	-474.9762268066406	1093.089721679688	548.8291015625	-464.4898681640625	979.9634399414062	613.3424682617188	-173.0237579345703	894.2539672851562	154.8846435546875	-422.265625	903.8219604492188	627.0033569335938	-166.8867340087891	965.5123291015624	517.4588012695312	-203.2780151367188	883.4873046875	529.6336059570312	-189.1220855712891	1135.883056640625	521.7423706054688	-483.4759216308594	892.8297729492188	454.1751098632812	-196.3390808105469	1087.453125	441.2264099121094	-474.2723693847656	998.131103515625	394.4067687988281	-458.0426330566406	843.2559204101562	340.4061889648438	-198.8415832519531	841.8324584960938	211.2954406738281	-476.7669067382812	775.3880615234375	392.4200134277344	-193.3869018554688	758.1299438476562	357.2897644042969	-345.7727355957031	773.9532470703125	264.5635681152344	-217.3684234619141	716.5249633789062	317.97412109375	-210.1324005126953	828.3035278320312	352.0102844238281	-436.7206115722656	625.2288818359375	167.7588958740234	-237.2393646240234	771.455322265625	45.76164245605469	-255.8817749023438	559.3943481445312	167.1088562011719	-295.0032958984375	559.697509765625	132.3815612792969	-321.1162109375	546.3013305664062	143.5326538085938	-267.9084777832031	751.1843872070312	367.2323303222656	-400.6234130859375
198	0.985	1013.547119140625	1414.805053710938	-485.7526550292969	1079.398559570312	1397.0849609375	-192.9011077880859	996.9494018554688	959.0291748046876	-478.822021484375	1023.448913574219	961.7561645507812	-201.1130981445312	1042.698364257812	910.63232421875	-455.4891662597656	812.8491821289062	367.2377014160156	-369.4003295898438	1049.070190429688	919.3201904296876	-220.2120513916016	923.1698608398438	837.285888671875	-502.0067138671875	900.057861328125	849.3386840820312	-170.3195648193359	870.6885986328125	960.4766235351562	-344.1411437988281	1116.19921875	673.5738525390625	-505.3799133300781	990.9588012695312	462.3399047851562	-455.9466857910156	1057.197631835938	627.819091796875	-480.1220092773438	1183.06591796875	600.8955078125	-487.6153259277344	697.5825805664062	61.68404769897461	-195.7693328857422	1073.763061523438	514.1608276367188	-474.94091796875	1120.223754882812	555.3219604492188	-465.2963562011719	997.1090087890624	616.2243041992188	-173.8803405761719	942.7308349609376	148.2589111328125	-421.4714660644531	921.3450317382812	631.635009765625	-166.5301971435547	980.3514404296876	520.8621826171875	-203.7772216796875	898.5690307617188	534.6353759765625	-188.5718536376953	1163.788696289062	528.182861328125	-483.2948303222656	905.37451171875	458.7315979003906	-195.7496032714844	1118.25927734375	445.4838562011719	-475.4662170410156	1032.4052734375	392.6989135742188	-458.1689147949219	853.4302368164062	346.1573791503906	-197.4024047851562	886.6486206054688	201.168212890625	-477.6907348632812	786.2406616210938	399.0210876464844	-192.7647247314453	795.0645751953125	342.186767578125	-349.1225891113281	783.5703735351562	270.7286987304688	-215.6268310546875	726.5829467773438	325.4041442871094	-208.8586120605469	864.1116333007812	340.9274291992188	-438.8246154785156	634.1338500976562	174.9940032958984	-235.4534606933594	773.7657470703125	44.74465942382812	-254.8046875	569.3665771484375	177.4581909179688	-293.0794677734375	568.4072875976562	142.6694946289062	-319.9460144042969	555.345947265625	153.5239715576172	-266.3394165039062	786.635009765625	351.4736022949219	-403.4671936035156
199	0.99	1032.677490234375	1419.111572265625	-486.157958984375	1102.434326171875	1401.537231445312	-194.9071807861328	1019.918762207031	963.6026000976562	-479.0455932617188	1048.02783203125	965.1345825195312	-202.4256439208984	1064.738647460938	915.2562255859376	-456.2040405273438	847.6357421875	353.7049255371094	-372.0518493652344	1072.877807617188	922.4432373046876	-221.0505828857422	947.4765014648438	842.7514038085938	-503.7701416015625	922.8682250976562	853.2823486328125	-170.2304840087891	893.4742431640625	963.6109008789062	-344.3258666992188	1141.950561523438	680.3431396484375	-505.3716125488281	1021.355224609375	458.1709289550781	-457.1346130371094	1083.318237304688	633.4367065429688	-482.0236511230469	1209.671142578125	608.3446044921875	-487.361328125	701.1986083984375	63.11636352539062	-195.2819519042969	1101.132568359375	514.330078125	-475.0774841308594	1147.168823242188	561.6651000976562	-465.5377502441406	1014.748657226562	619.0948486328125	-175.3228149414062	990.0860595703124	142.0570983886719	-422.5463256835938	939.44384765625	636.2081909179688	-166.5834655761719	994.9847412109376	524.0813598632812	-203.9911499023438	914.0770874023438	539.7630615234375	-187.2156219482422	1191.525390625	534.8792724609375	-483.3974304199219	918.8511962890624	463.8020629882812	-194.8947296142578	1149.176147460938	447.3672485351562	-475.8013610839844	1066.068481445312	390.9805603027344	-458.8721923828125	864.2951049804688	352.0352478027344	-195.9646759033203	931.9461669921876	191.1768493652344	-478.7636108398438	797.8157958984375	405.6310424804688	-191.815185546875	830.6522827148438	327.6940002441406	-351.8226318359375	793.7430419921875	277.0435485839844	-213.5419006347656	737.1775512695312	332.2848205566406	-208.0852813720703	901.9517211914062	329.41943359375	-439.5325317382812	643.8428955078125	181.6116333007812	-233.4604187011719	776.5184936523438	43.89091110229492	-253.4731903076172	580.2892456054688	187.4525146484375	-291.3477478027344	577.7128295898438	153.2727508544922	-318.4461059570312	564.4589233398438	164.7571716308594	-264.3733215332031	822.6566772460938	335.6084289550781	-406.0662841796875
200	0.995	1051.49365234375	1423.41357421875	-486.4385681152344	1125.317626953125	1405.929077148438	-196.7812347412109	1042.4365234375	968.4193725585938	-479.2646179199219	1072.0361328125	968.3173828125	-203.0750122070312	1086.669555664062	920.0228881835938	-457.0034790039062	883.2794799804688	339.2063293457031	-374.5653686523438	1096.4482421875	925.7136840820312	-222.4606475830078	971.6171875	848.2468872070312	-505.3634338378906	946.1223754882812	857.2788696289062	-169.6661682128906	916.7442016601562	967.3472290039062	-344.1565856933594	1167.84228515625	686.3389892578125	-505.5871887207031	1051.429931640625	453.1438903808594	-458.3024291992188	1109.228271484375	638.909912109375	-483.6322937011719	1235.779663085938	614.8313598632812	-486.7259216308594	705.4921875	65.38926696777344	-193.3119506835938	1128.415893554688	513.817626953125	-475.3347778320312	1173.416748046875	567.955322265625	-466.7249145507812	1032.2412109375	622.244140625	-175.7680816650391	1037.906982421875	136.4445037841797	-422.4067993164062	957.3815307617188	640.6580200195312	-166.8064575195312	1010.0771484375	527.4697875976562	-203.7113494873047	929.6937255859376	544.9691162109375	-186.9168548583984	1218.796997070312	539.7923583984375	-483.2230224609375	932.1965942382812	468.8873901367188	-193.7422485351562	1180.01171875	449.7603759765625	-476.1475219726562	1100.08984375	388.0939025878906	-459.3243408203125	875.4895629882812	357.8608093261719	-194.333740234375	977.994384765625	181.6382293701172	-479.4752807617188	809.4913330078125	412.1060791015625	-190.8470916748047	867.6303100585938	312.2489318847656	-354.744140625	804.6272583007812	283.4818725585938	-211.4581298828125	748.571533203125	339.3159484863281	-206.8164672851562	939.5232543945312	317.5830993652344	-441.25439453125	654.4256591796875	188.4476165771484	-231.3745574951172	779.5636596679688	42.99710464477539	-250.972900390625	592.0780029296875	197.7787475585938	-289.355712890625	587.67138671875	164.2216949462891	-316.781494140625	575.1829833984375	175.9828796386719	-262.8414916992188	859.4152221679688	320.2952880859375	-409.1167602539062
201	1.0	1070.615112304688	1427.534790039062	-486.7554321289062	1148.238037109375	1410.415405273438	-198.9999542236328	1065.094360351562	973.8939208984376	-479.9860229492188	1096.262939453125	971.6383056640624	-203.9186401367188	1109.345581054688	924.4146118164062	-458.2072448730469	918.8986206054688	325.2706298828125	-377.27392578125	1120.758178710938	929.1588745117188	-223.5339965820312	995.8056030273438	853.3496704101562	-507.0968627929688	969.4366455078124	860.8248901367188	-170.109130859375	940.2741088867188	970.6552124023438	-344.6974792480469	1193.208129882812	692.4295654296875	-505.5093688964844	1082.172119140625	448.0713195800781	-459.7463989257812	1134.579956054688	644.3101806640625	-485.2868957519531	1261.477294921875	621.3671875	-486.46435546875	709.9752807617188	68.2357177734375	-192.2676239013672	1155.706909179688	512.9801635742188	-476.5009765625	1199.095336914062	573.1362915039062	-467.6600952148438	1049.734497070312	625.1435546875	-176.1626129150391	1086.0986328125	131.4434509277344	-422.0585327148438	975.4647827148438	644.891845703125	-166.4563140869141	1025.204711914062	530.38134765625	-204.0304565429688	945.306884765625	550.1897583007812	-186.18310546875	1245.887084960938	544.4429931640625	-482.8573303222656	945.3941650390624	473.9989013671875	-192.7260894775391	1210.80517578125	451.4460144042969	-476.7416076660156	1133.835327148438	385.8885192871094	-460.1319274902344	887.1603393554688	364.0781555175781	-193.0542907714844	1024.163330078125	172.7384338378906	-480.1005859375	821.6259765625	419.20751953125	-190.3210144042969	905.13134765625	296.9099731445312	-357.322998046875	815.3827514648438	289.6234741210938	-209.2939758300781	759.9351196289062	346.3794860839844	-205.7121124267578	977.3936767578124	306.2519226074219	-443.0232849121094	665.3997802734375	195.2469635009766	-229.5996704101562	782.3028564453125	41.7196044921875	-249.9309844970703	604.685302734375	208.1952667236328	-286.9361877441406	598.6118774414062	175.2429809570312	-314.9001770019531	584.3370971679688	186.9321899414062	-261.9607849121094	897.2944946289062	305.2794799804688	-412.0212707519531
